<svg width="800px" height="800px" viewBox="0 0 24 24" version="1.2" baseProfile="tiny" xmlns="http://www.w3.org/2000/svg">
  <defs>
    <linearGradient id="musicGradient" x1="0" y1="0" x2="1" y2="1">
      <stop offset="0%" stop-color="#00D078" />
      <stop offset="100%" stop-color="#007DF0" />
    </linearGradient>
  </defs>
  <path
    fill="url(#musicGradient)"
    d="M18.383 4.318c-.374-.155-.804-.069-1.09.217-1.264 1.263-3.321 1.264-4.586 0-2.045-2.043-5.37-2.043-7.414 0-.188.187-.293.442-.293.707v13c0 .552.447 1 1 1s1-.448 1-1v-4.553c1.271-.997 3.121-.911 4.293.26 2.045 2.043 5.371 2.043 7.414 0 .188-.188.293-.442.293-.707v-8c0-.405-.244-.769-.617-.924z"
  />
</svg>
